<?xml version="1.0" standalone="no"?>
<!DOCTYPE svg PUBLIC "-//W3C//DTD SVG 20010904//EN"
 "http://www.w3.org/TR/2001/REC-SVG-20010904/DTD/svg10.dtd">
<svg version="1.0" xmlns="http://www.w3.org/2000/svg"
 width="300.000000pt" height="168.000000pt" viewBox="0 0 300.000000 168.000000"
 preserveAspectRatio="xMidYMid meet">
<metadata>
Created by potrace 1.10, written by Peter Selinger 2001-2011
</metadata>
<g transform="translate(0.000000,168.000000) scale(0.100000,-0.100000)"
fill="#556b2f" stroke="none">
<path d="M913 1506 c-133 -42 -241 -180 -294 -378 -14 -51 -22 -120 -26 -233
-7 -210 16 -345 84 -495 60 -131 185 -225 309 -231 50 -3 64 8 64 52 0 34 -15
45 -74 53 -62 8 -139 50 -181 99 -44 51 -89 146 -111 237 -27 107 -27 364 0
470 24 96 66 180 119 237 49 54 98 80 175 94 31 6 60 16 64 22 12 18 9 62 -4
75 -15 15 -71 14 -125 -2z"/>
<path d="M1637 1226 c-65 -24 -105 -63 -142 -142 -75 -159 -46 -456 55 -555
70 -69 186 -85 166 -22 -5 15 -19 23 -48 28 -56 10 -110 61 -139 133 -21 50
-24 73 -24 187 0 127 1 132 32 195 35 71 77 107 136 117 40 6 52 25 37 54 -12
22 -22 23 -73 5z"/>
<path d="M1990 1228 c-114 -33 -190 -180 -190 -371 0 -204 74 -354 190 -384
52 -13 70 -6 70 26 0 25 -5 29 -37 35 -93 15 -145 83 -170 223 -20 106 -8 217
32 299 32 64 52 83 117 105 47 16 53 21 53 46 0 32 -13 36 -65 21z"/>
<path d="M2338 1230 c-139 -42 -218 -235 -189 -461 18 -141 57 -220 132 -271
43 -29 111 -38 124 -18 14 23 -6 48 -44 55 -57 9 -114 63 -142 132 -21 51 -24
74 -24 188 0 126 1 132 32 195 35 71 77 107 136 117 38 6 53 27 41 57 -7 17
-24 19 -66 6z"/>
<path d="M1163 1219 c-121 -23 -189 -115 -208 -281 -6 -49 -5 -59 9 -64 23 -9
25 -5 36 57 16 94 30 128 68 168 102 106 277 57 312 -88 23 -97 -7 -203 -89
-310 -43 -57 -46 -67 -32 -90 12 -19 31 -4 81 64 69 95 85 146 85 270 0 94 -3
116 -22 151 -29 54 -93 110 -134 119 -19 3 -41 8 -49 10 -8 1 -34 -1 -57 -6z"/>
<path d="M1667 1018 c-36 -19 -51 -69 -52 -163 0 -107 22 -171 63 -182 15 -3
27 -1 33 8 13 21 11 26 -18 53 -24 22 -28 35 -31 96 -5 85 2 117 27 125 22 7
33 28 25 49 -8 20 -27 26 -47 14z"/>
<path d="M2000 1002 c-69 -70 -45 -321 33 -330 24 -3 27 0 27 27 0 21 -6 32
-20 36 -49 16 -44 225 5 225 21 0 20 56 -1 64 -10 4 -26 -5 -44 -22z"/>
<path d="M1154 1012 c-31 -21 -49 -111 -26 -134 16 -16 30 -1 34 37 2 24 8 31
31 33 63 7 27 -63 -151 -297 -101 -131 -120 -172 -86 -185 9 -3 116 -6 239 -6
238 0 255 3 240 50 -6 19 -14 20 -206 20 -109 0 -199 3 -199 7 0 3 38 57 84
118 115 154 149 216 150 275 1 59 -23 90 -68 90 -17 0 -36 -4 -42 -8z"/>
<path d="M2331 989 c-44 -73 -30 -276 23 -311 21 -14 45 -8 51 13 5 16 0 27
-21 44 -25 20 -29 30 -32 94 -4 75 10 131 34 131 15 0 28 35 19 50 -13 22 -55
10 -74 -21z"/>
</g>
</svg>
